<?xml version="1.0" encoding="UTF-8"?>
<svg width="80px" height="80px" viewBox="0 0 80 80" version="1.1" xmlns="http://www.w3.org/2000/svg" xmlns:xlink="http://www.w3.org/1999/xlink">
    <!-- Generator: Sketch 51.1 (57501) - http://www.bohemiancoding.com/sketch -->
    <title>download</title>
    <desc>Created with Sketch.</desc>
    <defs>
        <linearGradient x1="0%" y1="50%" x2="100%" y2="50%" id="linearGradient-1">
            <stop stop-color="#D15564" offset="0%"></stop>
            <stop stop-color="#506DCF" offset="100%"></stop>
        </linearGradient>
    </defs>
    <g id="Page-1" stroke="none" stroke-width="1" fill="none" fill-rule="evenodd">
        <g id="download" fill-rule="nonzero">
            <path d="M40,0 C62.091,0 80,17.909 80,40 C80,62.091 62.091,80 40,80 C17.909,80 0,62.091 0,40 C0,17.909 17.909,0 40,0 Z" id="Shape" fill="#0F111A"></path>
            <path d="M50.378,32.576 C50.378,33.581 49.563,34.397 48.557,34.397 C47.552,34.397 46.737,33.581 46.737,32.576 C46.737,31.571 47.552,30.755 48.557,30.755 C49.563,30.755 50.378,31.571 50.378,32.576 Z M54.627,27.113 C54.627,26.772 54.323,26.506 53.981,26.506 C47.38,26.506 43.758,28.024 39.017,32.747 C37.936,33.847 36.817,35.099 35.679,36.446 L28.491,36.825 C28.301,36.844 28.112,36.958 27.998,37.129 L23.749,44.413 C23.616,44.641 23.654,44.943 23.844,45.152 L25.058,46.367 C25.172,46.48 25.343,46.537 25.495,46.537 C25.552,46.537 25.609,46.537 25.665,46.517 L30.9,44.906 L36.23,50.236 L34.618,55.472 C34.561,55.681 34.618,55.909 34.77,56.078 L35.984,57.292 C36.117,57.406 36.268,57.463 36.42,57.463 C36.534,57.463 36.628,57.442 36.724,57.388 L44.007,53.138 C44.178,53.025 44.291,52.834 44.312,52.646 L44.691,45.456 C46.038,44.318 47.29,43.199 48.39,42.117 C52.882,37.603 54.627,33.411 54.627,27.113 Z" id="Shape" fill="url(#linearGradient-1)"></path>
        </g>
    </g>
</svg>